<svg width="360" height="408" viewBox="0 0 360 408" fill="none" xmlns="http://www.w3.org/2000/svg">
<path d="M360 136.06C360 61.1365 300.414 0 226.995 0H0V82.3619V256.882V271.94V339.244V408H227.172C274.522 408 318.68 381.876 342.266 339.97C353.97 319.47 360 295.886 360 271.94C360 247.811 353.793 224.59 342.266 203.909C353.97 183.41 360 160.007 360 136.06ZM29.6158 30.2961H227.172C284.276 30.2961 330.562 77.8266 330.562 136.06C330.562 154.746 325.773 172.888 316.729 188.852C298.286 221.506 263.882 241.825 227.172 241.825H29.6158V82.3619V30.2961ZM227.172 271.94C259.448 271.94 290.128 259.785 314.069 238.922C309.103 267.948 290.483 292.076 263.704 302.417C252 306.952 239.764 309.129 227.172 309.129H29.6158V271.94H227.172ZM227.172 377.885H29.6158V339.426H227.172C243.31 339.426 259.094 336.523 273.99 330.718C298.286 321.284 317.793 303.687 330.03 281.554C328.611 296.793 324.177 311.669 316.552 325.094C298.286 357.567 263.882 377.885 227.172 377.885Z" fill="black"/>
</svg>
